<svg xmlns="http://www.w3.org/2000/svg" width="61.5" height="61.502" viewBox="0 0 61.5 61.502">
  <g id="telephone" transform="translate(-0.006)">
    <g id="Group_114" data-name="Group 114" transform="translate(0.006)">
      <path id="Path_115854" data-name="Path 115854" d="M46.763,80.917a4.309,4.309,0,0,0-6.514,0c-1.523,1.51-3.046,3.02-4.543,4.556a.9.9,0,0,1-1.254.23c-.985-.538-2.035-.973-2.982-1.561a47.246,47.246,0,0,1-11.39-10.366A26.985,26.985,0,0,1,16,67.236a.937.937,0,0,1,.23-1.2c1.523-1.472,3.008-2.982,4.5-4.492,2.086-2.1,2.086-4.556-.013-6.668-1.19-1.2-2.38-2.38-3.571-3.583C15.92,50.062,14.7,48.82,13.463,47.6a4.337,4.337,0,0,0-6.514.013c-1.536,1.51-3.008,3.059-4.569,4.543a7.416,7.416,0,0,0-2.329,5,21.2,21.2,0,0,0,1.638,9.125A55.448,55.448,0,0,0,11.53,82.684,60.9,60.9,0,0,0,31.7,98.463a29.17,29.17,0,0,0,11.173,3.251A8.188,8.188,0,0,0,49.9,99.039c1.305-1.459,2.777-2.79,4.159-4.185a4.354,4.354,0,0,0,.026-6.629Q50.436,84.559,46.763,80.917Z" transform="translate(-0.006 -40.233)" fill="#373737"/>
      <path id="Path_115855" data-name="Path 115855" d="M251.727,114.2l4.722-.806A21.2,21.2,0,0,0,238.519,96l-.665,4.748A16.382,16.382,0,0,1,251.727,114.2Z" transform="translate(-207.414 -83.714)" fill="#373737"/>
      <path id="Path_115856" data-name="Path 115856" d="M263.384,9.957A34.821,34.821,0,0,0,243.419,0l-.665,4.748a30.385,30.385,0,0,1,25.711,24.918l4.722-.806A35.077,35.077,0,0,0,263.384,9.957Z" transform="translate(-211.687)" fill="#373737"/>
    </g>
  </g>
</svg>
