<svg xmlns="http://www.w3.org/2000/svg" width="65.113" height="65.766" viewBox="0 0 65.113 65.766">
  <g id="band" transform="translate(-2.54)">
    <g id="Group_89" data-name="Group 89" transform="translate(23.889 26.99)">
      <g id="Group_88" data-name="Group 88">
        <path id="Path_115844" data-name="Path 115844" d="M180.448,236.012a2.711,2.711,0,1,0,5.083-1.889l-2.059-5.541h-5.236v-2.116h6.117a1.411,1.411,0,1,0,0-2.821v-7.217a1.4,1.4,0,0,0,.637-.153,2.521,2.521,0,0,1,.745-1.537,1.411,1.411,0,0,0-1.383-1.131H174.3l6.305-3.206a3.661,3.661,0,0,1-2.5-.276l-4.649,3.642a8.887,8.887,0,0,1,.311,2.66,6.893,6.893,0,0,1-2.557,5.255,6.448,6.448,0,0,1-2.472,1.191l1.974,3.592h4.7v10.6l-1.868,1.869.179,3.811,3.1-3.1,6.457,6.458a1.411,1.411,0,0,0,2-1.995l-7.042-7.044V230.06Z" transform="translate(-168.744 -210.126)" fill="#373737"/>
      </g>
    </g>
    <g id="Group_91" data-name="Group 91" transform="translate(58.051 34.848)">
      <g id="Group_90" data-name="Group 90">
        <path id="Path_115845" data-name="Path 115845" d="M435.4,271.348l-.7-.049v10.18l2.962-6.268A2.713,2.713,0,0,0,435.4,271.348Z" transform="translate(-434.703 -271.299)" fill="#373737"/>
      </g>
    </g>
    <g id="Group_93" data-name="Group 93" transform="translate(41.614 33.896)">
      <g id="Group_92" data-name="Group 92">
        <path id="Path_115846" data-name="Path 115846" d="M308.329,265.808a2.493,2.493,0,0,1-1.595-.135v3.418a4.013,4.013,0,0,1,.589.625h8.795v-5.829Z" transform="translate(-306.734 -263.886)" fill="#373737"/>
      </g>
    </g>
    <g id="Group_95" data-name="Group 95" transform="translate(29.711 0)">
      <g id="Group_94" data-name="Group 94" transform="translate(0 0)">
        <path id="Path_115847" data-name="Path 115847" d="M232.192.427a.706.706,0,0,0-.928-.369L220.191,4.832a2.259,2.259,0,0,0-2.819,1.422l-3.181,9.317a2.252,2.252,0,0,0-.032,1.356,3.678,3.678,0,0,1,1.305-.582,3.637,3.637,0,0,1,1.015-1.242,3.675,3.675,0,0,1,2.257-.779,3.724,3.724,0,0,1,.637.057l2.277-6.667a2.254,2.254,0,0,0,.119-.746l10.12-5.646A.71.71,0,0,0,232.192.427Z" transform="translate(-214.069 0)" fill="#373737"/>
      </g>
    </g>
    <g id="Group_97" data-name="Group 97" transform="translate(39.466 3.13)">
      <g id="Group_96" data-name="Group 96">
        <path id="Path_115848" data-name="Path 115848" d="M317.89,36.2a2.258,2.258,0,0,0-2.332-1.077l-6.912-10.445a.706.706,0,0,0-1.214.718l5.745,10.961-5.251,3.1c-7.316.137-6.991.148-6.991.148l-9.326-.148a4.035,4.035,0,0,1-.279,2.276,3.674,3.674,0,0,1-.472,3.442,3.568,3.568,0,0,1-.782.788l-.058,3.63h.031a3.531,3.531,0,0,1,3.212,2.074l2.512-1.5a25.046,25.046,0,0,1,5.789-2.53,3.5,3.5,0,0,1,.48-1.491l.033-2.059,6.529-.122a2.259,2.259,0,0,0,1.105-.313l7.382-4.353A2.259,2.259,0,0,0,317.89,36.2Z" transform="translate(-290.017 -24.366)" fill="#373737"/>
      </g>
    </g>
    <g id="Group_99" data-name="Group 99" transform="translate(41.031 7.153)">
      <g id="Group_98" data-name="Group 98">
        <circle id="Ellipse_3" data-name="Ellipse 3" cx="4.683" cy="4.683" r="4.683" fill="#373737"/>
      </g>
    </g>
    <g id="Group_101" data-name="Group 101" transform="translate(42.232 25.295)">
      <g id="Group_100" data-name="Group 100">
        <path id="Path_115849" data-name="Path 115849" d="M336.684,198.975a.379.379,0,0,0-.356-.343l-4.526-.248a22.922,22.922,0,0,0-6.552.588v-.636a1.411,1.411,0,0,0-2.821,0v1.329a23.235,23.235,0,0,0-6.806,2.712l-3.891,2.324a.379.379,0,0,0,.285.693l10.412-2.569v20.836l-8.945,8.945a1.411,1.411,0,1,0,1.995,1.995l6.951-6.95v1.732a1.411,1.411,0,1,0,2.821,0v-1.732l6.95,6.95a1.411,1.411,0,0,0,2-1.995l-8.945-8.945V202.129l11.147-2.75A.379.379,0,0,0,336.684,198.975Z" transform="translate(-311.547 -196.926)" fill="#373737"/>
      </g>
    </g>
    <g id="Group_103" data-name="Group 103" transform="translate(8.472 47.081)">
      <g id="Group_102" data-name="Group 102">
        <path id="Path_115850" data-name="Path 115850" d="M48.717,366.536v15.739a2.945,2.945,0,1,0,5.891,0V368.226A10.7,10.7,0,0,1,48.717,366.536Z" transform="translate(-48.717 -366.536)" fill="#373737"/>
      </g>
    </g>
    <g id="Group_105" data-name="Group 105" transform="translate(19.008 41.032)">
      <g id="Group_104" data-name="Group 104">
        <path id="Path_115851" data-name="Path 115851" d="M138.758,341.094l-.643-13.657a2.947,2.947,0,0,0-.361-1.28l-3.69-6.712a8.372,8.372,0,0,1-3.319,6.191l1.518,2.761.611,12.975a2.945,2.945,0,1,0,5.884-.277Z" transform="translate(-130.745 -319.445)" fill="#373737"/>
      </g>
    </g>
    <g id="Group_107" data-name="Group 107" transform="translate(9.91 5.724)">
      <g id="Group_106" data-name="Group 106" transform="translate(0)">
        <circle id="Ellipse_4" data-name="Ellipse 4" cx="5.087" cy="5.087" r="5.087" fill="#373737"/>
      </g>
    </g>
    <g id="Group_109" data-name="Group 109" transform="translate(4.683 16.683)">
      <g id="Group_108" data-name="Group 108">
        <path id="Path_115852" data-name="Path 115852" d="M52.431,133.561a2.392,2.392,0,0,0,.256-.2,1.631,1.631,0,0,0,.261-2.274l-.006-.007a1.631,1.631,0,0,0-2.273-.277l-.009.006-.239.188-.482-.615-.005-.006a1.306,1.306,0,0,0-1.825-.217h0a1.3,1.3,0,0,0-.222,1.83l.482.615-.41.322-.482-.615h0a1.3,1.3,0,0,0-2.052,1.609l.482.615-7.586,5.943-.008-.006c-3-2.545-6.85-2.1-8.12.9a3.585,3.585,0,0,1-1.437,1.659l2.8,2.125a2.127,2.127,0,1,1,1.191,3.758A4.812,4.812,0,0,1,28.76,153.1l.5.635a1.3,1.3,0,1,1-2.052,1.608l-2.859-3.649-4.986-3.521a10.021,10.021,0,0,0,3.289,8.882c2.672,2.475,6.793,3.6,9.645,1.362a6.079,6.079,0,0,0,2.226-4.43,3.581,3.581,0,0,1,3-3.264c3.091-.5,4.642-4.012,2.809-7.678l7.586-5.943.482.615h0a1.3,1.3,0,0,0,1.928.136l0,0a1.3,1.3,0,0,0,.122-1.743l-.482-.615.41-.322.482.615a1.3,1.3,0,1,0,2.053-1.608Z" transform="translate(-19.218 -129.881)" fill="#373737"/>
      </g>
    </g>
    <g id="Group_111" data-name="Group 111" transform="translate(2.54 17.52)">
      <g id="Group_110" data-name="Group 110" transform="translate(0)">
        <path id="Path_115853" data-name="Path 115853" d="M21.6,136.4H8.4a5.82,5.82,0,0,0-5.809,5.772c-.016,1.978-.031,3.9-.047,5.855v0a2.457,2.457,0,0,0,1.038,2.057l8.432,5.954a2.455,2.455,0,0,0,2.832-4.01l-7.383-5.213c.031-3.823.018-2.237.037-4.613h0a.487.487,0,0,1,.974,0v2.44l3,2.121c.29.028.823.106.89.106a1.217,1.217,0,0,0,1.123-.744,6.468,6.468,0,0,1,1.981-2.6,6.63,6.63,0,0,1,4.137-1.39,7.9,7.9,0,0,1,1.867.228v-.019a.505.505,0,0,1,.967-.206,1.354,1.354,0,0,1,.114.565,9.209,9.209,0,0,1,1.138.534l3.358-2.631A5.821,5.821,0,0,0,21.6,136.4Z" transform="translate(-2.54 -136.401)" fill="#373737"/>
      </g>
    </g>
  </g>
</svg>
