<svg xmlns="http://www.w3.org/2000/svg" width="65.105" height="61.502" viewBox="0 0 65.105 61.502">
  <path id="teacher" d="M93.471,97.215h4.161V98.5H93.471Zm0-2.58h6.006v1.286H93.471Zm0-2.572h6.006V93.35H93.471Zm-2.6-4.329v16.773h11.182V87.735Zm-12.844,0v16.773H89.206V87.735ZM75.452,85.2h29.2V107.08H93.471a1.294,1.294,0,0,1-1.294,1.286H87.888a1.286,1.286,0,0,1-1.254-1.286H75.452Zm.8-9.585a36.466,36.466,0,0,1,10.543,1.6,35.778,35.778,0,0,1,11.821,5.591H73.056v18.371H52.52a6.869,6.869,0,0,0,3.562-7.636,6.773,6.773,0,0,0-5.391-4.936V88.4a6.669,6.669,0,0,1,2.556-5.112,41.1,41.1,0,0,1,12.46-6.071,40.171,40.171,0,0,1,10.543-1.6ZM40.1,67.8a.8.8,0,0,1,1.01.508l7.237,21.837A5.193,5.193,0,1,1,50.4,100.322c-3,.743-4.649,1.159-5.911-3.873-1.094-4.409.032-5.28,2.332-5.926l-7.236-21.71A.8.8,0,0,1,40.1,67.8ZM76.251,46.864a12.78,12.78,0,1,1-12.78,12.78A12.78,12.78,0,0,1,76.251,46.864Z" transform="translate(-39.548 -46.864)" fill="#373737" fill-rule="evenodd"/>
</svg>
