<svg xmlns="http://www.w3.org/2000/svg" width="60.284" height="63.766" viewBox="0 0 60.284 63.766">
  <g id="XMLID_371_" transform="translate(-12.562)">
    <circle id="XMLID_380_" cx="7.365" cy="7.365" r="7.365" transform="translate(35.337 0)" fill="#373737"/>
    <path id="XMLID_372_" d="M72.793,158.333a4.376,4.376,0,0,0-3.475-3.618,3.554,3.554,0,0,0,.329-5.939l-8.955-6.595-.06-10.61a8.428,8.428,0,0,0-8.41-8.368H33.182a8.428,8.428,0,0,0-8.41,8.366l-.06,10.613-8.955,6.595a3.555,3.555,0,0,0,.336,5.943,4.372,4.372,0,0,0-.063,8.569l6.273,1.329a3.025,3.025,0,0,0,2.021,5.274c.221,0,17.984-1.252,18.449-1.34.366.059,18.077,1.34,18.305,1.34a3.025,3.025,0,0,0,2.016-5.279l6.278-1.324A4.386,4.386,0,0,0,72.793,158.333ZM53.524,131.609l.07,12.4a3.554,3.554,0,0,0,1.446,2.842L65.432,154.5a3.571,3.571,0,0,0,.42.264l-13.738.548v-23.7a.705.705,0,0,1,1.41,0Zm-23.16,15.238A3.554,3.554,0,0,0,31.81,144l.07-12.4h0a.705.705,0,0,1,1.41,0V155.3l-13.735-.535a3.581,3.581,0,0,0,.417-.262Z" transform="translate(0 -106.125)" fill="#373737"/>
  </g>
</svg>
